# xmcd
#
# Track frame offsets: 
#        150
#        14800
#        30097
#        41845
#        56145
#        71202
#        88087
#        103775
#        115245
#        130852
#        144020
#        159285
#        173132
#        184877
#        200480
#        216142
#        230712
#        241192
#        254977
#        268837
#
# Disc length: 3787 seconds
#
# Revision: 1
# Processed by: cddbd v1.5.2PL0 Copyright (c) Steve Scherf et al.
# Submitted via: ExactAudioCopy v0.95b4
#
DISCID=2c0ec914
DTITLE=Glenn Miller and His Orchestra - In The Mood CD2
DYEAR=1996
DGENRE=Jazz
TTITLE0=Don't Sit Under The Apple Tree
TTITLE1=American Patrol
TTITLE2=Fools Rush In
TTITLE3=At Last
TTITLE4=Moonlight Cocktail
TTITLE5=A Nightingale Sang In Berkeley Square
TTITLE6=Song Of The Volga Boatmen
TTITLE7=Over The Rainbow
TTITLE8=Take The'A'Train
TTITLE9=When You Wish Upon A Star
TTITLE10=It's A Blue World
TTITLE11=Long Tall Mama
TTITLE12=You And I
TTITLE13=Stardust
TTITLE14=Chatanooga Choo Choo
TTITLE15=Slow Freight
TTITLE16=Danny Boy
TTITLE17=That Old Black Magic
TTITLE18=Rhapsody In Blue
TTITLE19=Moonlight Serenade
EXTD=Tracks by B3
EXTT0=
EXTT1=
EXTT2=
EXTT3=
EXTT4=
EXTT5=
EXTT6=
EXTT7=
EXTT8=
EXTT9=
EXTT10=
EXTT11=
EXTT12=
EXTT13=
EXTT14=
EXTT15=
EXTT16=
EXTT17=
EXTT18=
EXTT19=
PLAYORDER=
